<svg width="3200" height="4134" viewBox="0 0 3200 4134" fill="none" xmlns="http://www.w3.org/2000/svg">
<rect width="3200" height="4134" fill="#F8E8E8"/>
<g id="428630 1">
<g id="Group">
<path id="Vector" d="M917.733 266.133C912.4 268.8 911.467 270.266 899.6 294.266C887.867 318 885.333 323.6 881.333 334C877.333 344.933 874.533 352.133 873.2 355.333C871.333 359.733 865.2 377.466 863.2 384C859.6 395.866 851.867 423.466 849.867 431.333C848.8 435.733 846.933 442.4 845.867 446.133C844.8 449.866 844 454 844 455.2C844 456.4 843.2 460.266 842.133 463.733C839.467 472.8 831.6 512.8 827.467 538.666C826.133 546.4 824.533 556.266 823.733 560.666C822.933 565.066 821.867 572.533 821.333 577.333C820.8 582.133 819.733 590.533 818.933 596C815.467 620.4 812.267 656.8 808.533 718C806.8 746.133 806.533 769.467 807.067 842C807.467 891.067 808.133 934.267 808.533 938C808.933 941.6 810 955.733 810.667 969.333C814 1027.33 814.533 1034.8 815.333 1037.2C815.733 1038.53 816.667 1046.27 817.333 1054.13C819.733 1084.13 824.933 1125.07 831.333 1166.67C832.4 1173.6 834.267 1185.6 835.333 1193.33C836.4 1201.07 837.867 1210 838.533 1213.33C839.2 1216.67 840.4 1222.93 841.2 1227.33C844.4 1245.2 849.467 1270.8 852 1282.67C856.8 1304.8 857.6 1308.53 858.667 1314.67C859.6 1320.8 874 1378.67 878.8 1395.33C880.133 1400.4 882.4 1408.27 883.467 1412.67C884.667 1417.07 886.533 1422.93 887.6 1425.87C889.333 1430.8 889.333 1431.2 886.133 1435.87C881.467 1442.4 879.6 1445.2 868.667 1462C859.867 1475.6 855.6 1482.53 849.067 1494.67C847.733 1497.2 845.067 1502 843.2 1505.33C836.133 1517.6 818.667 1553.07 814 1564.67C807.733 1579.87 804.133 1589.07 802.667 1593.33C802 1595.2 799.733 1601.47 797.467 1607.33C791.867 1622.27 791.2 1624.53 787.2 1638C779.867 1663.07 779.067 1666.4 773.333 1691.33C771.733 1697.87 770 1705.07 769.333 1707.33C768.667 1709.47 766.533 1716.67 764.667 1723.33C759.2 1742.53 757.067 1749.87 755.867 1752.67C755.333 1754.13 752.4 1762.53 749.467 1771.33C742.933 1790.93 738.8 1801.87 733.2 1815.33C732.4 1817.47 730.267 1822.93 728.667 1827.33C720.4 1849.2 703.467 1892.27 698 1904.67C696.4 1908.67 692.4 1918.8 686.533 1934C684.8 1938.4 682.933 1942.53 682.4 1943.2C681.867 1944 681.333 1945.47 681.333 1946.53C681.333 1947.73 680.133 1950.13 678.8 1951.87L676.4 1954.93L669.867 1947.2C655.067 1929.73 638.8 1912.4 610.933 1884.67L581.6 1855.2L582.267 1840.53C583.2 1821.33 580.933 1812.53 572.667 1804.4C567.333 1798.93 566.667 1798.67 559.2 1798.67C553.6 1798.67 549.2 1799.73 544.267 1802C536.8 1805.47 520.133 1817.47 514.8 1823.2C512.933 1825.07 510.933 1826.67 510.133 1826.67C509.333 1826.67 503.2 1821.73 496.667 1815.6C475.467 1796.27 466.4 1790.67 456.133 1790.67C450.533 1790.67 448.667 1791.33 444.933 1794.67C438.267 1800.4 430.8 1818.67 428.133 1835.33C427.333 1840.4 427.067 1840.67 422.667 1840.4C420.133 1840.27 414.667 1839.33 410.667 1838.13C380.133 1829.73 369.6 1830.13 362.133 1840.4C359.333 1844.13 358.933 1851.6 360.4 1874.67C360.667 1880 360.667 1880 346.667 1877.33C325.2 1873.33 318.933 1874.13 312.667 1881.47C308.133 1886.93 307.333 1894.67 310 1909.33L312.133 1921.87L309.067 1924.27C307.333 1925.6 305.067 1926.67 304 1926.67C302.933 1926.67 298.667 1928.27 294.667 1930.13C277.467 1938.13 271.733 1950.53 279.2 1963.6C282.667 1969.6 295.2 1986 301.733 1992.93C305.2 1996.67 305.733 1998.53 306.8 2008.93C307.467 2015.33 308.667 2022.4 309.333 2024.53C310.133 2026.67 310.667 2030.4 310.667 2032.93C310.667 2035.47 311.467 2041.47 312.533 2046.4C313.6 2051.33 315.067 2059.87 316 2065.33C316.8 2070.8 318.267 2079.2 319.333 2084C320.4 2088.8 322.533 2099.6 324 2108C325.6 2116.4 327.333 2125.07 328 2127.33C328.533 2129.47 330 2136.13 331.2 2142C332.533 2147.87 334.267 2156.53 335.333 2161.33C336.4 2166.13 338 2173.87 338.8 2178.67C339.733 2183.47 341.2 2189.87 342.267 2193.07C343.2 2196.13 344 2200.13 344 2201.73C344 2203.33 344.933 2207.33 346 2210.67C347.733 2216 353.2 2238 356 2250.67C356.667 2253.2 358.933 2262.53 361.333 2271.33C363.6 2280.13 366 2289.47 366.667 2292C367.867 2296.53 369.067 2301.07 374.667 2321.33C376.267 2326.8 378 2333.47 378.533 2336C380.667 2345.2 400.267 2409.87 402.667 2415.33C403.333 2416.8 404.4 2420.13 405.2 2422.67C405.867 2425.2 409.2 2435.07 412.667 2444.67C416.133 2454.13 419.333 2463.47 420 2465.33C422.533 2473.47 439.333 2514.8 446.667 2530.67C451.067 2540.27 454.667 2548.53 454.667 2548.93C454.667 2549.33 458.133 2556.93 462.4 2565.87C466.8 2574.67 475.2 2592.8 481.333 2606C487.467 2619.2 493.2 2630.93 494.267 2632.13C495.2 2633.2 496 2635.2 496 2636.27C496 2637.47 496.933 2639.07 498 2640C499.067 2640.93 500 2642.4 500 2643.2C500 2644.4 566.133 2777.47 570.667 2785.33C572.667 2788.93 644.8 2934.8 653.867 2953.73C658.8 2963.87 669.067 2985.07 676.8 3001.07C692.933 3034 696 3040.8 696 3043.47C696 3044.67 693.467 3050.67 690.533 3057.07C685.467 3067.6 680.267 3079.07 677.2 3086C676.533 3087.47 671.067 3098.27 664.933 3110L653.733 3131.33L627.867 3132.27C596.933 3133.47 589.467 3134.4 569.333 3139.73C550.4 3144.8 516.533 3157.47 511.333 3161.47C510.533 3162 505.2 3164.93 499.333 3168C488 3173.87 465.867 3188.4 452.8 3198.53C421.733 3222.67 381.6 3263.2 359.467 3292.67C356.4 3296.67 353.333 3299.87 352.533 3300C351.733 3300 349.467 3297.6 347.467 3294.67C345.6 3291.73 342.533 3287.07 340.667 3284.27C338.8 3281.47 337.333 3278.53 337.333 3277.87C337.333 3277.07 335.867 3275.07 334 3273.33C332.133 3271.6 330.667 3269.6 330.667 3268.8C330.667 3266.13 315.067 3247.73 308.533 3242.53C301.333 3236.93 293.467 3234.4 286.4 3235.47C282.267 3236.27 281.467 3235.87 278.667 3231.87C269.6 3218.67 257.067 3207.73 248.533 3205.33C243.867 3204 241.733 3204.13 236.267 3205.87C228.533 3208.53 225.067 3211.87 221.867 3220C218.667 3228.27 217.6 3229.33 212.667 3229.33C203.067 3229.33 192.133 3241.87 189.6 3256C185.467 3278 187.867 3316.67 195.333 3350C196.267 3354.4 197.733 3361.6 198.667 3366C199.6 3370.4 200.8 3375.73 201.6 3378C202.267 3380.13 203.333 3384.67 204 3388C206.4 3400.13 213.067 3425.33 214.667 3428.27C215.467 3429.6 216 3432.13 216 3433.87C216 3435.73 216.667 3437.6 217.333 3438C218.133 3438.4 218.667 3440 218.667 3441.6C218.667 3443.07 219.467 3446.13 220.533 3448.4C221.6 3450.8 223.467 3456.53 224.667 3461.33C225.867 3466.13 228.667 3475.2 230.8 3481.73C232.933 3488.13 234.667 3494.4 234.667 3495.73C234.667 3497.07 235.2 3498.67 235.867 3499.33C236.533 3500.13 240.8 3511.73 245.333 3525.33C249.867 3538.93 254.133 3550.53 254.667 3551.33C255.2 3552 259.2 3561.33 263.333 3572C267.467 3582.67 271.733 3593.07 272.667 3595.33C276.533 3603.87 285.333 3625.2 285.333 3626C285.333 3626.4 287.333 3631.07 289.867 3636.4C292.4 3641.73 295.6 3648.93 297.067 3652.67C298.533 3656.27 302.933 3666.27 306.933 3674.67C310.933 3683.07 315.333 3692.4 316.667 3695.33C320.533 3704.27 329.6 3723.2 330.8 3725.33C331.467 3726.4 332.4 3728.27 332.8 3729.33C334.533 3733.73 348.4 3760.8 349.867 3762.67C350.8 3763.73 352.267 3766.4 353.333 3768.67C356.933 3776.27 372.4 3803.33 379.2 3814C382.933 3819.87 386.667 3825.6 387.333 3826.8C390.133 3831.47 394.133 3836.93 399.6 3844.13C402.8 3848.13 405.333 3852.13 405.333 3852.8C405.333 3855.33 438 3887.2 446.4 3892.93C465.467 3906 484.8 3909.33 499.067 3902.27C511.2 3896.13 521.467 3885.6 528 3872.93C530.8 3867.33 532.933 3866.8 544 3868.67C554.533 3870.53 576.4 3873.33 586.667 3874.27C590 3874.4 600.533 3875.6 610 3876.67C683.2 3884.93 827.067 3888.27 940.667 3884.27C1056.67 3880.27 1136.93 3879.87 1188.67 3883.33C1225.2 3885.73 1253.33 3887.07 1309.33 3889.47C1329.47 3890.27 1349.07 3891.07 1352.67 3891.33C1356.4 3891.47 1386.67 3892.4 1420 3893.2C1453.33 3894 1485.2 3895.07 1490.67 3895.47C1507.2 3896.67 1765.47 3897.2 1791.33 3896C1804.53 3895.33 1827.6 3894.53 1842.67 3894.13C1857.73 3893.6 1879.87 3892.4 1892 3891.33C1904.13 3890.4 1922.4 3888.8 1932.67 3888C1952.8 3886.4 1973.6 3883.87 1996.4 3880.4L2010.8 3878.13L2014.27 3882.67C2022 3892.93 2038.13 3907.33 2046.67 3911.73C2055.6 3916.13 2068.53 3920 2074.67 3920C2081.33 3920 2097.2 3915.07 2105.6 3910.27C2123.2 3900.27 2138.8 3882.93 2158.93 3851.47C2175.73 3824.93 2181.07 3815.47 2198.13 3781.87C2219.73 3739.07 2232.27 3710.27 2252.8 3656C2254.53 3651.2 2257.2 3644.27 2258.53 3640.67C2263.2 3628.4 2268.93 3611.47 2274.67 3593.33C2277.87 3583.47 2282 3570.27 2284 3564C2286 3557.73 2289.33 3546.67 2291.33 3539.33C2295.87 3522.67 2298.27 3514.53 2300.67 3506C2303.2 3497.2 2309.33 3472.8 2310.67 3466C2311.2 3463.07 2312.8 3456.13 2314 3450.67C2315.2 3445.2 2316.67 3438 2317.33 3434.67C2317.87 3431.33 2319.6 3422.67 2321.07 3415.33C2326.13 3391.2 2329.07 3366.4 2330 3342C2330.8 3320.4 2330.67 3316.93 2328.13 3307.6C2324.93 3295.33 2319.6 3286.93 2312.53 3283.2C2307.73 3280.67 2307.33 3280 2306.4 3272.93C2304.8 3260.13 2299.47 3252.4 2288.53 3246.93C2283.47 3244.4 2282.53 3244.27 2276.93 3246C2266.93 3248.93 2263.87 3251.2 2252.4 3263.6C2238.27 3278.67 2231.2 3285.73 2221.87 3294C2213.6 3301.33 2198 3321.2 2182 3344.67C2179.73 3348.13 2177.47 3346.13 2172.67 3336.93C2170.67 3333.07 2168 3328.8 2166.8 3327.33C2165.6 3325.87 2160.4 3318.4 2155.33 3310.67C2142.53 3291.33 2131.73 3278.27 2112.4 3258.53L2095.73 3241.73L2139.33 3212.8C2169.6 3192.67 2183.6 3182.53 2185.33 3179.6C2190.93 3170.53 2187.73 3162.67 2174.93 3153.2C2160 3142.27 2142.4 3129.6 2106 3103.87C2093.6 3095.07 2082.27 3086.8 2080.93 3085.47C2078.4 3082.93 2075.33 3066.8 2077.2 3064.93C2078 3064.13 2100.93 3055.73 2116 3050.67C2118.53 3049.87 2121.6 3048.67 2122.67 3048.13C2123.87 3047.47 2126.8 3046.53 2129.33 3046C2131.87 3045.47 2134.67 3044.53 2135.33 3044C2136.13 3043.47 2143.33 3040.8 2151.33 3038.13C2159.47 3035.47 2167.2 3032.67 2168.67 3032C2171.6 3030.67 2197.2 3021.47 2216.67 3014.8C2223.33 3012.53 2232 3009.47 2236 3008C2240 3006.53 2251.2 3002.53 2260.67 2999.07C2270.27 2995.73 2284.67 2990.67 2292.67 2987.73C2300.8 2984.8 2308.53 2982.13 2310 2981.73C2311.47 2981.33 2316.53 2979.47 2321.33 2977.73C2326.13 2975.87 2336.67 2972 2344.67 2969.2C2371.6 2959.87 2381.47 2956.27 2382.27 2955.47C2382.8 2955.07 2384.27 2954.67 2385.6 2954.67C2393.07 2954.67 2401.33 2945.73 2401.33 2937.6C2401.33 2934.8 2397.33 2925.33 2390.13 2910.93C2384 2898.67 2371.73 2874 2362.93 2856C2354.13 2838 2329.73 2788.67 2308.8 2746.27C2287.87 2703.87 2270.67 2668.93 2270.67 2668.53C2270.67 2668.27 2262.93 2652.27 2253.33 2633.2C2243.87 2614.13 2236 2598 2236 2597.2C2236 2596.13 2249.07 2589.33 2251.2 2589.33C2251.6 2589.33 2257.47 2586.67 2264.27 2583.47C2271.07 2580.27 2278.13 2577.2 2280 2576.67C2281.87 2576.13 2288.13 2573.33 2294 2570.67C2299.87 2568 2306.13 2565.2 2308 2564.67C2309.87 2564.13 2316.27 2561.33 2322.13 2558.53C2328.13 2555.6 2333.47 2553.33 2333.87 2553.33C2334.27 2553.33 2338.67 2551.47 2343.6 2549.2C2357.6 2542.8 2361.07 2541.33 2361.87 2541.33C2362.67 2541.33 2376.53 2535.2 2380.53 2533.07C2381.87 2532.4 2387.07 2530.27 2391.87 2528.4C2396.67 2526.53 2401.33 2524.67 2402 2524C2402.8 2523.47 2407.33 2521.47 2412.13 2519.6C2416.93 2517.6 2427.6 2513.07 2435.73 2509.33C2444 2505.73 2450.93 2502.67 2451.33 2502.67C2451.6 2502.67 2456.4 2500.53 2461.87 2498C2467.33 2495.47 2474.67 2492.27 2478.27 2490.8C2481.73 2489.47 2488.13 2486.67 2492.27 2484.8C2496.4 2482.93 2500.13 2481.33 2500.53 2481.33C2500.93 2481.33 2505.07 2479.6 2509.6 2477.47C2514.27 2475.47 2524 2471.2 2531.33 2468.13C2538.67 2464.93 2546.53 2461.6 2548.67 2460.67C2557.2 2456.67 2577.33 2448 2578 2448C2578.27 2448 2581.73 2446.53 2585.6 2444.8C2589.47 2443.07 2598.67 2439.07 2606 2436C2613.33 2432.93 2621.73 2429.2 2624.67 2427.87C2627.6 2426.67 2639.6 2421.47 2651.33 2416.53C2663.07 2411.6 2673.6 2407.2 2674.67 2406.67C2676.8 2405.6 2678.13 2405.07 2693.33 2398.67C2698.8 2396.27 2705.73 2393.33 2708.8 2391.87C2711.73 2390.53 2714.53 2389.33 2715.07 2389.33C2716.13 2389.33 2729.73 2383.33 2734.93 2380.53C2736.8 2379.47 2739.07 2378.67 2739.73 2378.67C2740.53 2378.67 2745.47 2376.67 2750.93 2374.13C2756.27 2371.73 2776.53 2362.93 2796 2354.67C2815.47 2346.4 2831.87 2339.07 2832.67 2338.53C2833.33 2337.87 2834.8 2337.33 2836 2337.33C2839.2 2337.33 2853.6 2330 2856.27 2327.2C2861.47 2321.2 2880.13 2273.07 2885.33 2252C2886 2249.47 2887.73 2243.07 2889.33 2238C2890.8 2232.8 2893.47 2223.2 2895.2 2216.67C2896.93 2210 2899.07 2202.8 2899.73 2200.67C2900.53 2198.4 2902.67 2189.47 2904.67 2180.67C2906.67 2171.87 2909.07 2162 2910 2158.67C2910.93 2155.33 2912.8 2147.6 2914 2141.33C2915.33 2135.07 2917.2 2127.47 2918.13 2124.27C2919.2 2121.2 2920 2117.33 2920 2115.87C2920 2114.4 2920.93 2109.2 2922.13 2104.27C2923.2 2099.33 2924.93 2091.73 2926 2087.33C2927.07 2082.93 2928.53 2075.07 2929.33 2070C2930.27 2064.8 2931.73 2057.33 2932.67 2053.33C2933.6 2049.33 2935.47 2040 2936.67 2032.67C2937.87 2025.33 2939.73 2016 2940.8 2011.87C2941.87 2007.87 2942.67 2003.07 2942.67 2001.33C2942.67 1999.6 2943.47 1994.53 2944.53 1990.13C2946.8 1980 2953.2 1944.27 2956 1925.33C2956.8 1919.87 2958.13 1912.67 2958.93 1909.33C2959.6 1906 2960.8 1899.2 2961.47 1894C2962 1888.93 2963.2 1881.33 2964 1877.33C2967.07 1860.67 2972.8 1823.47 2978.67 1782.67C2979.33 1777.87 2980.8 1768 2982 1760.67C2983.07 1753.33 2984.8 1740.13 2986 1731.33C2987.2 1722.53 2989.07 1708.67 2990.13 1700.67C2995.73 1660.13 2998.4 1638.67 3001.33 1611.33C3002.13 1604 3003.33 1593.87 3003.87 1588.93C3005.33 1577.73 3003.87 1572 2998.53 1567.47C2993.6 1563.33 2984.93 1562.8 2973.47 1566.13C2969.33 1567.33 2963.87 1568.8 2961.33 1569.47C2958.8 1570.13 2950.67 1572.4 2943.33 1574.53C2925.2 1579.73 2922.93 1580.27 2922 1578.67C2921.6 1578 2920.53 1577.33 2919.87 1577.33C2919.07 1577.33 2918.8 1577.87 2919.2 1578.53C2920.53 1580.53 2917.2 1582.13 2902.67 1586.67C2894.93 1589.07 2885.07 1592.27 2880.67 1593.6C2876.27 1595.07 2865.47 1598.53 2856.67 1601.33C2836.93 1607.73 2809.6 1617.07 2806 1618.67C2804.53 1619.33 2799.73 1621.07 2795.33 1622.53C2790.93 1624 2779.6 1628 2770 1631.47C2760.53 1634.8 2748.8 1639.07 2744 1640.8C2739.2 1642.53 2732 1645.2 2728 1646.67C2724 1648.27 2718.53 1650.13 2716 1650.93C2713.47 1651.6 2710.8 1652.67 2710 1653.2C2709.33 1653.73 2705.73 1655.2 2702 1656.53C2698.4 1657.87 2694.13 1659.47 2692.67 1660.13C2691.2 1660.67 2686.13 1662.67 2681.33 1664.4C2669.73 1668.67 2646.67 1677.33 2643.33 1678.67C2641.87 1679.33 2631.33 1683.6 2620 1688C2600.53 1695.73 2595.73 1697.73 2586 1702C2578.13 1705.6 2552.27 1716 2551.47 1716C2551.07 1716 2545.73 1718.27 2539.73 1721.2C2533.6 1724 2527.2 1726.8 2525.33 1727.33C2523.47 1727.87 2518.93 1729.73 2515.07 1731.47C2511.33 1733.2 2507.87 1734.67 2507.47 1734.67C2507.07 1734.67 2501.6 1737.07 2495.33 1740C2489.07 1742.93 2483.6 1745.33 2483.33 1745.33C2483.07 1745.33 2476.93 1748 2469.87 1751.33C2462.8 1754.67 2456.8 1757.33 2456.53 1757.33C2456.27 1757.33 2451.6 1759.47 2446.13 1762C2440.67 1764.53 2435.87 1766.67 2435.47 1766.67C2435.07 1766.67 2426.67 1770.53 2416.67 1775.33C2406.67 1780.13 2398.13 1784 2397.87 1784C2396.27 1784 2294.8 1833.87 2285.33 1839.33C2283.47 1840.4 2276 1844.53 2268.67 1848.4C2242.27 1862.53 2234 1867.07 2230.67 1869.33C2225.07 1873.07 2206.4 1882.8 2205.87 1882.27C2205.6 1882 2205.07 1853.6 2204.8 1819.2C2204.4 1774.13 2203.6 1751.07 2202 1736.4C2200.8 1725.33 2200 1713.07 2200.27 1709.07L2200.67 1702L2216.8 1688C2225.73 1680.27 2239.2 1668.67 2246.8 1662.13C2254.4 1655.6 2264.93 1646.27 2270 1641.47C2275.2 1636.53 2282.67 1629.6 2286.8 1626C2364.4 1557.47 2491.73 1428.4 2571.73 1337.6C2586.53 1320.8 2594.53 1311.33 2618 1283.33C2623.47 1276.67 2632.8 1265.6 2638.67 1258.67C2644.53 1251.73 2652.53 1241.73 2656.53 1236.67C2660.53 1231.47 2669.6 1220.13 2676.53 1211.33C2728.27 1146.27 2784.53 1065.6 2818.67 1007.33C2822.53 1000.67 2827.6 992.267 2830 988.667C2832.27 984.933 2835.6 979.333 2837.33 976C2839.07 972.667 2842.53 966.533 2845.07 962.267C2854.13 946.8 2888.13 880 2897.73 858.667C2915.47 819.6 2937.73 761.333 2939.33 750C2940.4 743.2 2936.93 736.533 2930.53 733.067C2925.73 730.267 2920 730.4 2903.33 733.6C2886.67 736.667 2851.47 746.533 2838.67 751.733C2836.8 752.4 2832.93 754 2830 755.067C2820.53 758.667 2794.27 769.6 2787.33 772.667C2747.2 790.933 2686.8 821.6 2669.47 832.533C2666.53 834.533 2663.73 836 2663.47 836C2663.07 836 2657.33 839.2 2650.67 842.933C2644 846.8 2636.27 851.2 2633.6 852.8C2626.13 857.067 2605.87 869.467 2594.93 876.4C2589.6 879.867 2584.93 882.667 2584.53 882.667C2584.13 882.667 2581.87 884.133 2579.6 885.867C2577.2 887.6 2571.47 891.333 2566.8 894.267C2555.2 901.333 2556.27 900.533 2534.67 915.067C2514.53 928.533 2501.2 937.6 2485.87 948.4C2480.8 951.867 2472.13 957.867 2466.67 961.733C2461.2 965.6 2453.6 970.933 2450 973.6C2446.27 976.4 2440.93 980.267 2438 982.4C2424 992.4 2388.93 1018.67 2379.87 1026C2374.4 1030.4 2358.53 1042.93 2344.8 1054C2304 1086.67 2270.67 1114.67 2246.8 1136.67C2242 1141.2 2233.47 1148.67 2228 1153.33C2194.4 1182.27 2102 1275.07 2071.6 1310.27C2065.2 1317.73 2059.33 1324.27 2058.67 1324.67C2057.87 1325.07 2052.93 1331.07 2047.47 1337.73C2042 1344.53 2030.4 1358.93 2021.47 1369.87C2012.67 1380.8 2002.8 1393.2 1999.73 1397.47C1996.53 1401.73 1993.2 1405.33 1992.13 1405.33C1991.2 1405.33 1980.13 1398.53 1967.47 1390.27C1943.87 1374.53 1942.8 1373.87 1924 1362.93C1907.6 1353.33 1899.07 1348.8 1882.27 1340.4C1874 1336.4 1866.4 1332.53 1865.33 1331.87C1864.27 1331.2 1862.4 1330.27 1861.33 1329.87C1860.27 1329.33 1851.6 1325.33 1842 1321.07C1820.13 1311.07 1818.8 1310.53 1806.67 1306C1801.2 1303.87 1795.2 1301.47 1793.33 1300.4C1791.47 1299.47 1789.33 1298.67 1788.4 1298.67C1786.8 1298.67 1779.47 1295.73 1774.27 1293.07C1770.93 1291.47 1719.07 1274.4 1704 1270C1697.07 1268 1688.67 1265.47 1685.33 1264.4C1682 1263.33 1676.93 1262 1674 1261.33C1671.07 1260.8 1663.87 1258.93 1658 1257.33C1652.13 1255.6 1644.93 1253.87 1642 1253.33C1639.07 1252.8 1630.13 1250.67 1622 1248.8C1600.93 1243.73 1591.2 1241.73 1580.67 1240C1575.6 1239.2 1567.2 1237.6 1562 1236.67C1556.93 1235.6 1545.47 1233.87 1536.67 1232.67C1527.87 1231.47 1516.53 1229.87 1511.33 1229.2C1506.27 1228.4 1496.27 1227.2 1489.33 1226.67C1482.4 1226 1470.67 1224.93 1463.33 1224.13C1456 1223.47 1434.4 1222.13 1415.33 1221.2C1364.53 1218.93 1292.8 1222.4 1258 1228.67C1252.13 1229.73 1245.2 1230.67 1242.67 1230.67C1240.13 1230.67 1235.87 1231.33 1233.33 1232C1223.33 1235.07 1208.67 1237.07 1207.07 1235.73C1206 1234.8 1205.33 1231.07 1205.33 1226C1205.33 1221.33 1204.4 1212.8 1203.33 1207.07C1202.27 1201.33 1201.33 1193.07 1201.33 1188.67C1201.33 1184.27 1200.4 1175.2 1199.33 1168.67C1198.27 1162 1197.33 1154.27 1197.33 1151.33C1197.33 1148.4 1196.53 1140.27 1195.47 1133.33C1194.27 1126.4 1192.53 1113.47 1191.33 1104.67C1190.13 1095.87 1188.67 1084.8 1187.87 1080C1187.07 1075.2 1185.87 1067.07 1185.2 1062C1184 1052 1183.6 1050 1180.53 1030.67C1173.73 988.267 1170.13 968.267 1164.67 940.667C1163.73 935.467 1162.13 927.067 1161.33 922C1160.4 916.8 1158.93 908.8 1158 904C1157.07 899.2 1155.2 890.267 1154 884C1152.67 877.733 1150.8 869.333 1149.87 865.2C1148.8 861.067 1148 856.267 1148 854.533C1148 852.933 1147.2 848.533 1146.13 844.8C1145.07 841.067 1142.53 830.533 1140.67 821.333C1135.33 796 1133.2 786.667 1131.2 779.467C1130.13 776 1129.33 772.133 1129.33 770.933C1129.33 769.867 1128.4 765.6 1127.2 761.467C1123.2 747.333 1121.6 740.667 1118 725.333C1114.53 710.666 1112.8 703.6 1108.53 688.666C1107.47 684.933 1104.8 675.066 1102.53 666.666C1090.67 623.333 1076.4 574.8 1073.47 567.333C1072.8 565.866 1070.67 559.2 1068.8 552.666C1066.8 546 1064.27 538.533 1063.33 536C1061.6 531.6 1053.2 507.466 1046.67 488C1045.07 483.2 1042.67 476.666 1041.33 473.333C1040 470 1036.4 460.666 1033.33 452.666C1030.27 444.533 1026.93 436.133 1026 434C1025.07 431.733 1020.93 422.133 1016.93 412.666C1006 386.666 985.867 344.4 978.133 331.333C977.333 329.866 974.267 324.4 971.333 319.333C962.267 303.2 941.6 272.533 936.4 267.866C932.533 264.133 923.333 263.2 917.733 266.133ZM1055.2 624.133C1058.27 633.066 1069.73 674.133 1076.67 700.666C1077.87 705.066 1079.6 711.6 1080.67 715.333C1085.2 732.267 1090.67 754 1094 768.667C1096 777.467 1099.07 790.667 1100.93 798C1102.8 805.333 1104.8 814 1105.33 817.333C1105.87 820.667 1107.33 827.2 1108.4 832C1109.47 836.8 1111.07 844 1112 848C1112.8 852 1114.4 858.933 1115.33 863.333C1116.4 867.733 1117.87 874.933 1118.67 879.333C1120.67 889.733 1123.6 903.867 1126.13 914.267C1127.07 918.8 1128 924.133 1128 926C1128 928 1128.93 933.2 1130 937.733C1132.53 948.8 1135.2 962.933 1139.33 988.667C1141.2 1000.4 1143.6 1015.07 1144.67 1021.33C1145.73 1027.6 1147.6 1038.93 1148.67 1046.67C1149.87 1054.4 1151.6 1065.47 1152.67 1071.33C1153.73 1077.2 1155.47 1089.73 1156.67 1099.33C1157.87 1108.8 1159.73 1122.4 1160.67 1129.33C1161.73 1136.27 1163.2 1148 1164 1155.33C1164.8 1162.67 1166.27 1176.8 1167.33 1186.67C1173.6 1246 1173.73 1246.93 1171.87 1248.67C1170.8 1249.6 1165.2 1252.93 1159.33 1256C1153.47 1259.2 1147.47 1262.4 1146 1263.2C1132.27 1270.8 1129.73 1279.87 1139.33 1286.13C1142.67 1288.27 1143.33 1288.27 1149.73 1286.27C1153.6 1285.07 1158.13 1283.87 1160 1283.47C1164.53 1282.67 1185.73 1277.6 1194 1275.47C1208 1271.73 1214.27 1270.27 1220 1269.2C1223.33 1268.67 1232.93 1266.93 1241.33 1265.47C1285.73 1257.47 1321.2 1254.67 1380.67 1254.67C1427.73 1254.67 1451.6 1255.87 1484.8 1260C1490.67 1260.67 1498.13 1261.33 1501.47 1261.33C1504.67 1261.33 1509.47 1262 1512 1262.8C1514.53 1263.47 1521.47 1264.67 1527.33 1265.33C1533.2 1266.13 1541.87 1267.2 1546.67 1268C1562.93 1270.53 1602.13 1278 1608.67 1279.87C1610.93 1280.53 1616.27 1281.73 1620.67 1282.67C1629.6 1284.67 1659.47 1292 1670.67 1295.2C1674.67 1296.4 1680.67 1298 1684 1298.8C1687.33 1299.6 1691.2 1300.8 1692.67 1301.47C1694.13 1302 1698.93 1303.6 1703.33 1304.8C1716.13 1308.4 1752.53 1320.53 1760.67 1323.87C1762.13 1324.53 1767.87 1326.67 1773.33 1328.67C1785.73 1333.33 1815.2 1345.6 1826.27 1350.8C1830.8 1352.93 1834.93 1354.67 1835.33 1354.67C1836.93 1354.67 1886.93 1380.13 1899.33 1387.2C1914.93 1396.27 1933.2 1407.6 1945.07 1415.6C1949.73 1418.8 1953.87 1421.33 1954.27 1421.33C1954.67 1421.33 1958.8 1424.4 1963.47 1428.13C1972.53 1435.33 1973.73 1438.27 1970 1443.47C1967.2 1447.6 1957.33 1470.67 1957.33 1473.33C1957.33 1474.53 1956.8 1476 1956.13 1476.67C1954.27 1478.67 1950.8 1493.33 1951.6 1495.73C1953.2 1500.27 1957.73 1504 1961.73 1504C1966.8 1504 1970.4 1500 1983.07 1479.87C1988.8 1470.8 1996 1460 1998.8 1456C2001.73 1452 2006.4 1445.33 2009.33 1441.33C2024.67 1419.87 2043.2 1395.87 2057.73 1378.4C2085.73 1344.93 2084.4 1346.4 2110 1317.87C2140.67 1283.87 2200 1224.13 2236.8 1190.67C2265.87 1164 2295.87 1137.47 2313.73 1122.67C2319.47 1117.87 2327.87 1110.8 2332.4 1106.93C2336.93 1103.2 2345.2 1096.4 2350.67 1092C2356.13 1087.6 2365.2 1080.27 2370.67 1075.87C2387.2 1062.53 2457.07 1009.87 2475.33 996.933C2481.2 992.8 2489.6 986.8 2494 983.6C2509.87 972.267 2525.07 961.867 2545.33 948.4C2556.67 940.933 2567.87 933.467 2570 932C2579.33 925.467 2592.8 917.333 2594.13 917.333C2596.27 917.333 2597.33 918.933 2604.13 931.333C2619.2 959.333 2625.33 974 2636.53 1010.67C2647.73 1046.67 2653.33 1105.2 2649.33 1142C2648.67 1147.87 2647.6 1158 2646.8 1164.67C2644.93 1181.87 2640.8 1200.4 2637.87 1205.07C2634.27 1210.8 2624.67 1223.2 2614.67 1235.2C2609.87 1240.93 2602.27 1250.27 2597.6 1255.87C2584.4 1271.87 2575.2 1282.53 2545.6 1315.73C2530.4 1332.93 2515.07 1350.27 2511.47 1354.4C2508 1358.67 2500.4 1366.8 2494.8 1372.67C2489.2 1378.67 2477.47 1391.2 2468.67 1400.67C2419.6 1453.73 2312 1558.67 2250.67 1613.33C2237.87 1624.67 2223.73 1637.33 2219.33 1641.47C2214.93 1645.6 2207.33 1652.13 2202.53 1656.13C2197.73 1660.13 2188.93 1667.47 2183.07 1672.67C2169.73 1684.27 2158.4 1693.6 2148 1701.33C2143.47 1704.67 2136.27 1710.13 2131.73 1713.6C2127.33 1717.2 2123.2 1720 2122.67 1720C2120.27 1720 2112 1729.73 2112 1732.53C2112 1737.6 2116.93 1742.67 2121.87 1742.67C2127.47 1742.67 2147.07 1736.13 2161.07 1729.73C2164.27 1728.13 2165.87 1728 2166.93 1729.07C2172.13 1734.27 2172.93 1889.33 2167.87 1938.67C2167.2 1946.4 2166 1960.8 2165.33 1970.67C2164.27 1988.27 2163.47 1995.73 2159.33 2031.33C2156.27 2056.67 2154.8 2068.4 2152.53 2083.33C2148.27 2112.4 2142.93 2145.07 2140.67 2156.67C2139.6 2161.73 2137.87 2171.73 2136.67 2178.67C2134.27 2192.4 2133.2 2198 2130.13 2213.33C2128.93 2218.8 2127.07 2228.13 2126 2234C2124.8 2239.87 2123.2 2246.8 2122.4 2249.33C2121.6 2251.87 2120.4 2256.4 2119.87 2259.33C2118.93 2264.67 2117.2 2272.4 2112 2293.33C2110.53 2299.6 2108.67 2307.07 2108 2310C2107.33 2312.93 2104.93 2322.53 2102.53 2331.33C2100.27 2340.13 2097.87 2349.47 2097.33 2352C2096.93 2354.53 2095.73 2358 2094.93 2359.6C2094 2361.2 2093.33 2363.6 2093.33 2364.93C2093.33 2366.13 2091.6 2372.93 2089.47 2380C2087.2 2386.93 2083.87 2398 2081.87 2404.67C2075.47 2426.27 2062 2464.4 2057.33 2474.27C2055.87 2477.47 2054.67 2480.27 2054.67 2480.67C2054.67 2482.27 2039.47 2512.53 2033.73 2522.4C2025.73 2536.4 2025.47 2536.8 2018.67 2547.07C2015.33 2552.13 2012.13 2557.2 2011.33 2558.4C2009.07 2562.13 1998.67 2576 1990.13 2586.67C1970.4 2611.33 1936 2642.93 1907.2 2662.67C1888.8 2675.33 1882.27 2679.6 1867.33 2688.27C1826.13 2712.4 1771.47 2739.33 1750.8 2745.47C1744.67 2747.33 1738.67 2753.33 1738.67 2757.6C1738.67 2761.2 1745.73 2768 1749.47 2768C1758.13 2768 1789.2 2760.27 1810 2752.8C1829.07 2746.13 1868.67 2727.6 1880 2720.13C1881.87 2718.93 1884.53 2717.33 1886 2716.4C1890.13 2713.87 1902.8 2706.13 1905.2 2704.67C1924.53 2692.67 1947.87 2674.93 1969.07 2656.13C1976 2650 1982 2645.6 1982.53 2646.13C1983.2 2646.8 1984.53 2659.33 1985.87 2674C1987.07 2688.67 1988.4 2704 1988.8 2708C1989.2 2712 1990 2721.6 1990.67 2729.33C1991.2 2737.07 1992.27 2747.07 1992.8 2751.6L1993.73 2760L1981.2 2772.8C1974.27 2779.87 1964.8 2788.53 1960 2792.27C1946.67 2802.27 1923.2 2826.13 1919.73 2833.2C1915.87 2841.07 1915.6 2854.27 1919.07 2861.87C1928.13 2880.67 1950.27 2889.73 1992.13 2891.73L2013.87 2892.67L2015.47 2900C2024.27 2940.13 2025.33 2945.33 2030.67 2977.33C2034.53 3000.4 2034.8 2999.33 2023.47 3011.6C2014.13 3021.6 2008.53 3026.53 1978 3051.87C1941.2 3082.4 1931.2 3098.53 1936.8 3118.53C1940.93 3133.6 1956.27 3145.73 1978 3151.33C1990 3154.53 2011.73 3156 2030 3155.07C2039.33 3154.67 2046.53 3154.8 2047.07 3155.47C2047.47 3156.13 2048.13 3169.2 2048.67 3184.4C2049.73 3215.73 2050.27 3214.27 2038.53 3209.87C2013.6 3200.67 1983.6 3199.2 1952 3205.47C1945.07 3206.93 1919.47 3214.93 1914.8 3217.2C1880.13 3233.87 1863.2 3244.27 1845.2 3259.6C1827.87 3274.27 1823.07 3283.2 1828.93 3289.6C1832.93 3294.13 1839.73 3292.67 1852.8 3284.67C1894.67 3259.07 1926.53 3245.6 1965.87 3237.2C2002.93 3229.33 2041.07 3241.07 2076.93 3271.47C2102.4 3293.2 2135.87 3337.47 2154.53 3374.27C2159.33 3383.73 2159.47 3383.33 2149.6 3400.53C2137.73 3421.2 2117.07 3464.4 2108.67 3486C2106.67 3491.07 2104.27 3497.07 2103.33 3499.33C2102.4 3501.47 2099.47 3510.53 2096.8 3519.33C2094 3528.13 2091.2 3536.4 2090.53 3537.6C2088.4 3541.73 2089.07 3554.8 2091.6 3557.6C2094.4 3560.8 2102.8 3560.8 2105.6 3557.6C2108.67 3554.27 2113.2 3545.6 2136.67 3499.33C2185.47 3402.53 2204.67 3368.93 2230.27 3336.13C2230.53 3335.87 2230.93 3335.87 2231.33 3336.13C2232.13 3337.07 2226 3381.87 2224.67 3383.87C2224.4 3384.4 2223.6 3388.4 2222.8 3392.8C2222.13 3397.07 2220.13 3406.4 2218.53 3413.33C2217.07 3420.27 2215.2 3428.4 2214.67 3431.33C2214.13 3434.27 2212.4 3442.27 2210.8 3449.2C2209.2 3456.13 2208 3462.27 2208 3462.8C2208 3463.33 2209.6 3465.6 2211.47 3467.87C2216.13 3473.47 2221.6 3473.47 2226.67 3468C2231.47 3462.93 2244.67 3436 2248.13 3424.27C2248.93 3421.2 2250.27 3418.67 2250.93 3418.67C2252.27 3418.67 2252.4 3417.87 2249.33 3428C2244.53 3443.73 2246.53 3450.67 2256.13 3450.67C2261.47 3450.67 2262.27 3450.13 2268.67 3442C2272.27 3437.2 2281.6 3419.87 2283.73 3413.6C2286 3407.07 2288.13 3408.27 2287.2 3415.6C2286.8 3419.2 2285.87 3423.47 2285.2 3425.33C2284.67 3427.2 2283.47 3432.27 2282.67 3436.67C2282 3441.07 2280.13 3449.73 2278.67 3456C2277.2 3462.27 2275.07 3471.2 2274 3476C2272.93 3480.8 2271.07 3488 2270 3492C2268.8 3496 2266.93 3502.53 2265.87 3506.27C2259.07 3531.33 2256.13 3541.47 2254.67 3544.67C2254 3546.13 2252.13 3552.4 2250.53 3558.67C2248.93 3564.8 2247.2 3570.8 2246.53 3572C2245.47 3574.13 2239.2 3592.27 2237.33 3599.33C2236.4 3602.53 2231.6 3616.27 2224.8 3635.33C2218 3654.13 2201.73 3694.93 2196.67 3706C2195.07 3709.6 2191.33 3718 2188.53 3724.67C2164.13 3781.73 2123.87 3849.47 2101.07 3871.6C2079.6 3892.4 2061.87 3889.6 2041.33 3862.27C2036.53 3856 2031.2 3848 2029.33 3844.53C2023.6 3833.6 2013.6 3819.07 2011.33 3818.13C2007.47 3816.67 2004.4 3817.2 2000.8 3820.13C1997.6 3822.67 1997.33 3823.6 1997.33 3833.33C1997.33 3840 1996.8 3844.13 1995.73 3845.07C1994.8 3845.73 1987.07 3847.33 1978.67 3848.53C1970.27 3849.73 1959.6 3851.33 1955.07 3852.13C1950.4 3852.8 1939.07 3854 1929.73 3854.67C1920.27 3855.33 1905.2 3856.53 1896 3857.33C1828.4 3862.8 1716.53 3864.4 1556.67 3862.4C1502.4 3861.73 1452 3860.93 1444.67 3860.67C1437.33 3860.4 1411.87 3859.6 1388 3858.8C1318 3856.53 1262.53 3853.73 1191.33 3849.07C1156.8 3846.67 1028.8 3846.8 981.333 3849.2C933.867 3851.6 728 3851.87 696.667 3849.47C684.933 3848.67 665.733 3847.33 654 3846.67C642.267 3845.87 628.133 3844.8 622.667 3844.13C617.2 3843.33 605.467 3842.13 596.667 3841.33C576.133 3839.33 547.867 3835.07 546.4 3833.6C545.867 3833.07 546 3826 546.8 3818C548.533 3800.27 547.333 3778.93 544.4 3775.73C540.133 3770.93 528.8 3771.73 527.2 3776.93C526.8 3778.27 526 3780.27 525.333 3781.47C524.667 3782.67 523.733 3786 523.333 3788.8C522.4 3794 518.133 3808.8 516 3814C515.333 3815.47 513.867 3819.6 512.533 3823.33C511.333 3826.93 509.2 3832.4 507.867 3835.47C506.4 3838.4 505.333 3841.33 505.333 3842C505.333 3842.53 502.533 3847.87 499.2 3853.6C493.067 3864.13 485.333 3872 481.2 3872C472.4 3872 448.4 3853.47 438.933 3839.33C437.067 3836.4 433.867 3832.13 432 3829.87C428 3824.93 420 3813.47 414.8 3805.33C412.8 3802 408.267 3795.07 404.933 3789.73C401.467 3784.4 398.667 3779.73 398.667 3779.33C398.667 3778.93 396.667 3775.33 394.133 3771.47C391.733 3767.6 388.133 3761.47 386.4 3757.87C384.667 3754.27 380.133 3745.6 376.4 3738.67C364.267 3715.87 340 3666.67 340 3664.8C340 3664.27 338 3659.6 335.467 3654.27C328.8 3640.13 324 3629.33 324 3628.4C324 3627.87 322.933 3625.07 321.467 3622.13C314.267 3606.53 312 3601.47 312 3600.67C312 3600.13 311.067 3597.6 309.867 3594.93C308.667 3592.13 307.2 3588.8 306.533 3587.33C305.867 3585.87 304.133 3581.33 302.667 3577.33C301.2 3573.33 299.333 3568.8 298.667 3567.33C296 3561.73 282.667 3527.47 282.667 3526.13C282.667 3525.33 281.733 3522.8 280.533 3520.67C279.333 3518.4 277.2 3512.8 275.733 3508C274.267 3503.2 271.333 3494.8 269.333 3489.33C264.133 3475.07 251.2 3433.33 247.333 3418.27C246.267 3413.87 244.8 3408.53 244.133 3406.27C243.333 3403.87 241.2 3395.07 239.333 3386.67C237.467 3378.27 234.933 3368.53 233.867 3365.2C232.933 3361.73 232 3357.47 232 3355.6C232 3353.73 231.067 3348.67 230 3344.4C227.733 3335.87 227.467 3329.33 229.2 3329.33C229.733 3329.33 230.667 3331.87 231.067 3335.07C232.667 3345.6 242.667 3376 248.667 3388.4C257.6 3406.4 258.4 3407.87 262.667 3410C268.267 3412.93 271.067 3412.53 275.333 3408C279.467 3403.73 279.467 3401.6 275.467 3382.93C271.2 3363.47 269.067 3351.47 264 3321.33C263.333 3317.33 262.133 3310.13 261.333 3305.33C256.267 3275.33 254.8 3263.33 255.867 3262.27C256.667 3261.47 258.933 3263.87 261.733 3268.13C266.133 3274.93 266.4 3276.13 267.2 3290.27C268.133 3306.93 272.667 3339.07 274.667 3342.8C275.467 3344.13 276 3346.8 276 3348.93C276 3350.93 276.8 3355.33 277.867 3358.67C278.933 3362 280.8 3368.27 282 3372.67C289.333 3399.47 302.533 3430 310.4 3438.4C315.333 3443.73 320.133 3444 324.933 3439.2C328 3436.13 328.267 3435.07 327.6 3428.13C326.8 3420.53 322.133 3399.87 320.8 3397.6C320.4 3396.93 319.6 3393.2 318.8 3389.2C318.133 3385.2 316.533 3377.2 315.333 3371.33C314.133 3365.47 312.267 3356.13 311.333 3350.67C310.267 3345.2 308.533 3336.13 307.467 3330.67C306.267 3325.2 304.8 3315.6 304 3309.33C303.2 3303.07 302.267 3296.4 301.867 3294.4C301.333 3291.6 301.6 3290.67 303.2 3290.67C306 3290.67 318.933 3312.27 331.333 3337.33C340.267 3355.2 345.067 3364.93 346.4 3367.33C349.2 3372.53 357.333 3390.27 357.333 3391.07C357.333 3391.47 360.133 3397.73 363.467 3404.93C366.933 3412.13 371.067 3421.6 372.667 3426C375.467 3433.07 378.8 3441.07 384.533 3454C388.933 3463.6 390.667 3468 394.667 3478.67C398.933 3490 400.133 3493.2 403.467 3500.67C406.133 3506.53 414 3527.33 417.467 3537.33C419.067 3542.13 420.8 3546.53 421.333 3547.33C421.867 3548 423.6 3553.2 425.333 3558.67C426.933 3564.13 428.8 3569.87 429.333 3571.33C431.733 3577.2 434.667 3587.33 434.667 3589.47C434.667 3593.47 442 3600 446.533 3600C452.533 3600 457.333 3594.93 457.333 3588.4C457.333 3571.73 448.8 3527.2 442.533 3511.33C442 3509.87 440.8 3506.27 440 3503.33C438.133 3497.07 429.6 3473.6 428.133 3470.67C426.533 3467.6 417.333 3444.4 417.333 3443.47C417.333 3443.07 415.6 3439.07 413.467 3434.67C411.333 3430.27 408.533 3423.6 407.333 3419.87C406.133 3416.27 403.067 3409.47 400.667 3404.8C398.267 3400.13 395.867 3394.93 395.333 3393.2C394.8 3391.47 392.4 3385.73 390 3380.67C387.6 3375.47 383.733 3367.07 381.467 3362C379.067 3356.8 375.733 3349.87 374 3346.4C372.133 3342.8 370.667 3338.93 370.667 3337.6C370.667 3331.07 404.133 3290.4 434 3260.67C458.133 3236.53 476.4 3222 506.533 3202.8C527.6 3189.33 566.933 3173.73 588.667 3169.87C591.6 3169.47 594.8 3168.4 595.733 3167.6C596.8 3166.8 609.333 3166.27 627.733 3166.13C658.533 3166 667.333 3167.07 684.667 3172.67C687.6 3173.6 693.067 3175.2 696.667 3176.13C704.4 3178.13 724.933 3186.8 730.267 3190.27C732.267 3191.6 736.667 3194.13 740.133 3196C750.933 3201.73 756.533 3205.2 763.467 3210.4C791.6 3230.93 814.267 3251.07 828.667 3268C837.867 3278.93 839.333 3280 843.467 3280C855.467 3280 857.333 3273.07 849.467 3257.47C843.067 3244.53 841.333 3242 826.267 3223.73C798.8 3190.27 751.067 3158.13 709.333 3145.07C696.133 3140.93 690.667 3138.4 690.667 3136.4C690.667 3135.33 691.733 3132.27 693.067 3129.6C694.533 3126.93 697.733 3120.4 700.267 3115.33C709.733 3096.67 724 3066.13 724 3064.67C724 3064.27 727.067 3057.2 734.933 3040C737.867 3033.47 748.133 3008.67 752.267 2998C753.6 2994.27 755.6 2989.47 756.533 2987.33C757.467 2985.07 760.8 2976.67 764 2968.67C767.067 2960.53 770.533 2952.13 771.467 2949.73C772.533 2947.47 773.333 2945.2 773.333 2944.67C773.333 2944.13 774.133 2941.87 775.2 2939.6C776.267 2937.2 779.6 2928.4 782.667 2920C785.733 2911.6 789.067 2902.8 790.133 2900.4C791.2 2898.13 792 2895.87 792 2895.33C792 2894.67 794 2889.07 796.533 2882.8C799.067 2876.53 802.133 2868 803.333 2864C804.533 2860 806 2855.47 806.667 2854C808.533 2849.2 810.4 2842.13 814.533 2825.33C820.667 2799.73 822.667 2787.33 823.067 2771.6C823.333 2757.87 823.2 2757.07 820.133 2754.53C818.4 2753.2 815.467 2752 813.6 2752C810.133 2752 802.667 2757.87 802.667 2760.67C802.667 2762.4 791.333 2797.6 789.333 2802C788.667 2803.47 786.667 2809.2 784.8 2814.67C778.933 2832.53 762.933 2877.33 757.333 2892C755.733 2896 754 2900.8 753.333 2902.67C752.667 2904.53 750.933 2909.33 749.333 2913.33C747.733 2917.33 744.667 2925.47 742.533 2931.33C737.867 2944 735.067 2951.2 732.667 2956.67C731.733 2958.8 727.733 2968.4 724 2978C720.267 2987.47 716.267 2996.13 715.333 2997.2C713.733 2998.8 711.733 2995.6 701.867 2975.2C685.733 2941.73 642.533 2854.53 576.8 2722.67C545.867 2660.67 516.8 2601.87 512.133 2592C507.467 2582.13 499.867 2566.13 495.333 2556.67C490.667 2547.07 485.333 2535.47 483.333 2530.67C481.333 2525.87 479.2 2521.47 478.533 2520.67C477.867 2520 477.333 2518.8 477.333 2517.87C477.333 2516.93 474.933 2511.07 472 2504.8C469.067 2498.53 466.667 2492.53 466.667 2491.6C466.667 2490.67 466.133 2489.33 465.467 2488.67C464.4 2487.47 456.533 2468.13 453.067 2458C452.4 2455.73 451.2 2452.8 450.533 2451.33C448.8 2447.2 440.933 2424 427.467 2382.67C426.4 2379.33 423.6 2370.4 421.333 2362.67C419.067 2354.93 416.4 2345.6 415.333 2342C411.067 2327.6 406.667 2312.13 404 2302C402.4 2296.13 399.067 2283.2 396.4 2273.33C393.867 2263.47 391.2 2253.2 390.667 2250.67C390 2248.13 388.933 2243.87 388.267 2241.33C387.467 2238.8 385.333 2229.47 383.333 2220.67C381.467 2211.87 378.933 2201.6 377.867 2197.87C376.8 2194.13 376 2190 376 2188.8C376 2187.6 375.2 2183.73 374.133 2180.27C373.067 2176.8 371.333 2169.2 370 2163.33C368.8 2157.47 366.4 2146 364.533 2138C362.8 2129.87 360.4 2118.53 359.2 2112.67C358.133 2106.8 356.4 2097.73 355.333 2092.67C349.067 2061.73 343.6 2030.13 339.2 1998.8L336.933 1982.4L330.667 1975.47C322.133 1966 318.267 1960.27 319.067 1958.13C319.467 1957.07 322.4 1955.6 325.6 1954.93C338.8 1951.73 341.6 1950.8 344.8 1948.67C351.2 1944.53 352.267 1936 348.133 1922.8C346.8 1918.4 346 1914.4 346.4 1914C347.733 1912.67 354.533 1913.33 359.6 1915.2C371.333 1919.47 381.067 1921.87 387.6 1921.87C393.467 1921.87 395.2 1921.33 398.533 1918.13C404.133 1912.8 404.933 1906.4 401.467 1894.4C396 1875.07 395.067 1870.8 395.6 1870.27C396.133 1869.6 408.267 1872.13 418.667 1875.2C433.733 1879.6 439.733 1880.53 444.8 1879.2C453.467 1877.07 455.067 1872.93 462.267 1836.93C462.667 1834.93 463.867 1833.33 464.8 1833.33C465.867 1833.33 471.867 1838.27 478.133 1844.27C490.533 1856.13 490.8 1856.8 486.133 1867.07C485.067 1869.47 483.6 1874.13 482.667 1877.6C481.2 1883.07 481.333 1884.4 483.2 1887.33C486 1891.6 490.8 1893.87 494.933 1892.93C496.933 1892.4 502.933 1886.13 510.533 1876.8C529.6 1853.07 549.333 1835.87 549.333 1843.07C549.333 1844 548.4 1848.27 547.333 1852.4C546.267 1856.67 545.333 1861.2 545.333 1862.53C545.333 1867.2 549.467 1872.93 557.6 1879.6C581.2 1898.8 648.267 1970.93 659.467 1989.07C662.667 1994.13 662.8 1995.2 661.333 1998.4C659.333 2002.8 645.733 2042.13 643.2 2051.33C630 2097.73 624.667 2130.27 626.133 2157.33C628 2196.53 630.133 2212.13 637.467 2240C641.333 2254.8 649.467 2280.53 652 2286C652.667 2287.47 654.533 2292 656.133 2296C667.067 2323.87 689.2 2365.2 708.4 2394C737.6 2437.6 774 2483.07 807.333 2517.2C865.067 2576.53 906.133 2614.4 961.733 2659.07C981.6 2674.93 999.867 2688.27 1016.67 2699.33C1023.33 2703.6 1030.27 2708.27 1032.27 2709.6C1034.27 2710.93 1036.27 2712 1036.67 2712C1037.07 2712 1043.6 2715.47 1051.07 2719.87C1068.13 2729.6 1088.27 2738.67 1092.93 2738.67C1098 2738.67 1102.67 2733.87 1102.67 2728.67C1102.67 2723.2 1098.8 2719.73 1077.6 2705.47C1075.07 2703.73 1069.73 2699.87 1065.87 2696.8C1062 2693.87 1056 2689.2 1052.4 2686.67C1048.93 2684.13 1042.53 2679.33 1038.4 2676C1034.27 2672.67 1028 2667.87 1024.53 2665.33C1021.07 2662.8 1013.73 2657.07 1008.13 2652.67C1002.53 2648.27 995.733 2642.8 992.933 2640.67C897.2 2565.73 804.667 2472.8 754.133 2400.93C744.8 2387.6 730.667 2366.53 730.667 2365.87C730.667 2365.47 729.2 2363.2 727.333 2360.8C725.467 2358.4 724 2356 724 2355.47C724 2355.07 722.4 2352.13 720.533 2349.2C718.667 2346.13 717.467 2342.93 717.867 2342C718.133 2341.07 722.4 2338.4 727.067 2336.13C737.867 2330.93 752.267 2321.33 759.733 2314.13C765.733 2308.53 778.8 2291.87 782.933 2284.67C792.533 2268.27 800.8 2246.67 804.933 2228C809.2 2208.13 809.467 2163.47 805.333 2142C803.733 2133.33 796.667 2110.67 794 2105.33C793.067 2103.47 790 2097.47 787.333 2092C784.533 2086.53 781.2 2080.8 779.867 2079.2C778.4 2077.73 777.333 2075.87 777.333 2075.2C777.333 2073.2 753.467 2050.4 746.667 2045.87C731.6 2035.87 715.867 2030.13 698.933 2028.67C688.4 2027.6 686.533 2026.13 689.067 2020.93C689.733 2019.33 692 2013.2 694 2007.33C696 2001.47 698.4 1994.8 699.467 1992.67C700.4 1990.4 703.867 1981.47 707.333 1972.67C710.8 1963.87 714.133 1955.47 714.667 1954C715.733 1951.6 720.8 1938.8 726.267 1924.67C727.467 1921.73 729.067 1917.47 730 1915.33C730.933 1913.07 735.733 1901.07 740.667 1888.67C745.6 1876.13 750.8 1863.47 752.133 1860.4C753.6 1857.33 754.667 1854.4 754.667 1854C754.667 1853.47 755.467 1851.2 756.533 1848.93C758.267 1844.93 769.333 1816.13 772.4 1807.33C773.2 1805.07 775.2 1799.47 777.067 1794.67C778.8 1790 781.2 1783.07 782.267 1779.33C783.2 1775.73 784.667 1771.47 785.333 1770C788.4 1762.8 802.8 1714.13 806 1700C811.867 1674 817.733 1651.87 821.2 1642C822 1639.73 823.867 1634.4 825.2 1630C828.933 1618.13 838.133 1593.2 840.4 1588.67C841.467 1586.4 844.267 1580.13 846.667 1574.67C855.867 1552.8 878.933 1508.27 889.067 1492.67C916.8 1449.87 924.4 1439.47 947.333 1412.67C962.8 1394.67 994.933 1361.6 1011.73 1346.27C1022 1336.93 1023.6 1333.07 1019.33 1327.07C1015.07 1320.93 1008 1322.27 992 1331.87C971.6 1344.4 957.6 1355.6 935.2 1377.6C924.933 1387.73 915.867 1396 915.067 1396C914.267 1396 913.333 1394.67 913.067 1392.93C912.533 1390.53 907.867 1372 896.667 1328C894.533 1319.2 891.6 1306.93 888.667 1293.33C887.467 1287.87 885.733 1279.73 884.667 1275.33C882.667 1266.13 880.667 1256 878 1240C876.933 1233.73 875.2 1224.4 874.133 1219.33C873.067 1214.13 871.2 1204.27 870.133 1197.33C868.933 1190.4 867.333 1180.8 866.533 1176C865.733 1171.2 864.667 1163.47 864 1158.67C863.467 1153.87 861.467 1139.47 859.6 1126.67C857.733 1113.87 855.6 1096.13 854.667 1087.33C853.867 1078.53 852.533 1066.8 851.733 1061.33C851.067 1055.87 850 1044.13 849.333 1035.33C848.8 1026.53 847.6 1012.13 846.8 1003.33C842 949.733 839.733 881.6 840.267 814L840.667 763.333L844 758.667C878.8 710.266 936.267 663.6 992 638.666C998.933 635.466 1007.2 631.733 1010.4 630.266C1018.27 626.666 1049.73 616.133 1051.33 616.533C1052.13 616.666 1053.73 620.133 1055.2 624.133ZM2968 1608.27C2968 1610.67 2967.33 1616.4 2966.67 1620.93C2965.47 1628.27 2960.4 1667.07 2957.33 1691.33C2953.33 1724 2951.73 1735.87 2950.67 1740C2949.87 1742.53 2949.33 1746.8 2949.33 1749.33C2949.33 1754.27 2946.4 1774.13 2943.2 1790.67C2942.27 1796.27 2941.33 1802.4 2941.33 1804.4C2941.33 1806.27 2940.4 1812.67 2939.33 1818.27C2938.27 1824 2936.13 1837.33 2934.53 1848C2932.93 1858.67 2931.2 1870.27 2930.67 1874C2928.13 1890.8 2924 1915.2 2920.67 1933.33C2919.73 1938.8 2918.13 1947.47 2917.33 1952.67C2915.73 1962 2913.6 1973.87 2907.2 2008C2905.33 2017.87 2902.93 2030.8 2901.87 2036.67C2900.8 2042.53 2899.07 2051.47 2898 2056.67C2896 2065.73 2894.13 2074.53 2890.13 2094C2889.07 2099.07 2887.6 2106.93 2886.67 2111.33C2885.87 2115.73 2884.4 2122.27 2883.33 2126C2882.4 2129.6 2880.67 2137.2 2879.47 2142.67C2878.27 2148.13 2876.27 2156.27 2875.2 2160.67C2870.4 2179.2 2868.93 2184.93 2867.33 2190.67C2866.27 2194 2864.8 2200 2863.87 2204C2863.07 2208 2861.47 2213.73 2860.53 2216.67C2859.6 2219.6 2857.87 2225.6 2856.53 2230C2855.33 2234.4 2852.67 2243.07 2850.67 2249.33C2848.53 2255.6 2846.53 2262.67 2846 2264.93C2845.6 2267.33 2844.53 2269.6 2843.87 2270C2843.2 2270.53 2842.67 2271.73 2842.67 2272.8C2842.67 2275.07 2837.47 2289.2 2833.47 2298C2831.07 2303.2 2830.4 2303.6 2804.53 2314.53C2789.87 2320.67 2774.27 2327.47 2769.73 2329.6C2765.2 2331.6 2761.2 2333.33 2760.8 2333.33C2760 2333.33 2746.27 2339.33 2740.93 2342.13C2738.8 2343.2 2736.67 2344 2736 2344C2735.47 2344 2729.87 2346.27 2723.73 2349.2C2717.73 2352 2709.2 2355.6 2705.07 2357.07C2700.8 2358.67 2696.27 2360.53 2695.07 2361.2C2691.07 2363.33 2675.73 2369.73 2653.33 2378.8C2647.87 2381.07 2642.8 2383.33 2642 2384C2641.33 2384.53 2637.2 2386.27 2633.07 2387.73C2628.8 2389.33 2624.27 2391.2 2623.07 2391.87C2619.73 2393.6 2615.33 2395.47 2558.67 2419.73C2531.2 2431.47 2503.6 2443.33 2497.33 2446.13C2477.87 2454.67 2475.07 2455.87 2455.6 2464.13C2445.2 2468.53 2434.53 2473.07 2432 2474.27C2429.47 2475.33 2424.67 2477.47 2421.33 2478.93C2418 2480.4 2414.13 2482.13 2412.67 2482.67C2411.2 2483.33 2406.4 2485.47 2402 2487.47C2397.6 2489.33 2391.87 2491.73 2389.33 2492.67C2386.8 2493.6 2380.13 2496.4 2374.67 2498.93C2369.2 2501.47 2355.07 2507.6 2343.33 2512.53C2331.6 2517.47 2319.07 2522.93 2315.33 2524.67C2311.73 2526.4 2305.33 2529.2 2301.33 2530.8C2297.33 2532.4 2289.87 2535.73 2284.67 2538.13C2279.6 2540.53 2267.2 2545.87 2257.33 2550C2247.47 2554.27 2235.73 2559.33 2231.33 2561.33C2226.93 2563.33 2218.67 2566.93 2213.07 2569.33C2200 2574.67 2196 2579.07 2196 2587.73C2196 2593.07 2198.67 2599.47 2214.53 2631.33C2224.67 2651.87 2236.13 2674.93 2239.87 2682.67C2243.73 2690.4 2247.33 2697.6 2248 2698.67C2248.67 2699.73 2251.87 2706 2255.07 2712.67C2258.27 2719.2 2262.4 2727.6 2264.27 2731.33C2266.13 2734.93 2272.8 2748.53 2279.07 2761.33C2285.33 2774.13 2296.8 2797.87 2304.8 2814C2312.67 2830.13 2325.33 2856.27 2332.93 2872C2340.53 2887.73 2347.47 2901.73 2348.13 2903.07C2355.33 2916.13 2360.13 2927.07 2359.2 2927.87C2358.53 2928.53 2353.2 2930.67 2347.33 2932.67C2341.47 2934.8 2336.13 2936.93 2335.33 2937.6C2334.67 2938.13 2332.93 2938.67 2331.33 2938.67C2329.87 2938.67 2327.2 2939.47 2325.33 2940.4C2323.47 2941.33 2319.07 2942.93 2315.33 2944C2311.73 2944.93 2307.47 2946.53 2306 2947.6C2304.53 2948.53 2302.4 2949.33 2301.07 2949.33C2299.87 2949.33 2296.8 2950.13 2294.4 2951.2C2289.73 2953.2 2281.6 2956.27 2266 2961.87C2240.4 2970.93 2212.8 2980.67 2202.67 2984.27C2196.4 2986.53 2190.13 2988.8 2188.67 2989.33C2187.2 2989.87 2177.87 2993.2 2168 2996.67C2144.4 3004.8 2128 3010.67 2124.67 3012.13C2121.2 3013.6 2090.8 3024 2087.33 3024.93C2085.87 3025.33 2082.67 3026.53 2080.27 3027.6C2074.8 3030 2072 3029.07 2072 3024.8C2072 3018.27 2062.4 2959.47 2056.67 2930.67C2051.6 2905.33 2051.6 2905.33 2053.33 2903.33C2054.27 2902.27 2056.4 2901.33 2058.13 2901.33C2059.73 2901.33 2062.8 2900.67 2064.93 2899.87C2066.93 2899.07 2071.33 2898 2074.67 2897.33C2078 2896.8 2084.93 2895.33 2090 2894.13C2095.2 2892.93 2101.73 2891.47 2104.67 2890.8C2110.4 2889.47 2121.47 2886.93 2136.67 2883.33C2141.87 2882.13 2150 2880.27 2155.07 2879.2C2171.33 2875.87 2177.33 2870.67 2177.33 2860C2177.33 2853.07 2178.8 2855.47 2156.53 2827.33C2150.13 2819.2 2143.33 2810.53 2141.47 2807.87C2139.6 2805.2 2134.13 2798.13 2129.33 2792.13C2124.53 2786.13 2118.27 2777.87 2115.33 2774C2112.4 2770 2106.4 2762.13 2102 2756.53C2097.6 2750.8 2091.87 2743.33 2089.33 2739.87C2086.8 2736.4 2078.93 2726.53 2072 2717.73C2064.93 2709.07 2054.4 2695.73 2048.67 2688.13C2042.8 2680.53 2034.93 2670.67 2031.33 2666.13C2019.2 2651.6 2018.27 2649.73 2016.4 2637.47C2015.47 2631.2 2014.67 2622.27 2014.67 2617.87C2014.67 2609.6 2014.67 2609.6 2024 2597.87C2033.47 2585.87 2049.07 2563.2 2057.87 2548.67C2072.93 2523.6 2094.53 2476.67 2102.13 2452.67C2103.07 2449.73 2106.53 2438.67 2110 2428C2113.33 2417.33 2117.07 2405.6 2118.13 2402C2119.2 2398.27 2120.67 2393.47 2121.33 2391.33C2122 2389.07 2123.47 2384 2124.53 2380C2125.6 2376 2128.4 2365.73 2130.8 2357.33C2133.07 2348.93 2135.47 2339.87 2136 2337.33C2138.4 2326.53 2141.47 2315.2 2142.67 2313.07C2143.47 2311.73 2144 2309.47 2144 2308C2144 2305.47 2145.07 2300.93 2150.13 2281.33C2151.07 2277.33 2152.93 2269.47 2154 2264C2155.07 2258.53 2157.2 2248.27 2158.67 2241.33C2160.27 2234.4 2162 2225.47 2162.67 2221.6C2163.33 2217.73 2164.53 2212.53 2165.2 2210.27C2165.87 2207.87 2167.47 2200.27 2168.67 2193.33C2169.87 2186.4 2171.73 2176.4 2172.67 2171.33C2173.73 2166.13 2176.13 2152.13 2178 2140C2179.87 2127.87 2182.27 2112.53 2183.33 2106C2185.87 2089.6 2188.8 2068.13 2191.33 2047.33C2192.53 2037.73 2194.4 2023.33 2195.47 2015.33C2196.53 2007.2 2197.33 1998 2197.33 1994.67C2197.33 1991.33 2197.87 1982.93 2198.67 1976C2199.33 1969.07 2200.53 1954.93 2201.2 1944.67C2202.53 1926.53 2202.67 1925.87 2206.27 1923.07C2208.27 1921.33 2211.87 1919.07 2214 1918C2216.27 1916.8 2221.33 1913.73 2225.33 1911.2C2229.33 1908.67 2233.87 1906 2235.33 1905.33C2236.8 1904.53 2238.93 1903.47 2240 1902.8C2247.33 1898 2273.47 1883.6 2300.67 1869.07C2319.2 1859.2 2389.33 1824.53 2398.8 1820.67C2403.47 1818.67 2410 1815.73 2413.33 1814C2420.8 1810.13 2435.33 1803.33 2452 1796C2458.93 1792.93 2465.2 1789.87 2466 1789.2C2466.67 1788.53 2467.87 1788 2468.8 1788C2469.73 1788 2475.6 1785.6 2481.87 1782.67C2488.13 1779.73 2493.6 1777.33 2494 1777.33C2494.4 1777.33 2498.8 1775.47 2503.73 1773.2C2508.67 1770.93 2513.87 1768.53 2515.33 1768C2516.8 1767.33 2522.27 1764.93 2527.33 1762.67C2532.53 1760.27 2540.27 1756.93 2544.8 1755.33C2549.2 1753.6 2555.47 1750.93 2558.8 1749.47C2562 1748 2573.73 1743.07 2584.67 1738.67C2595.73 1734.13 2605.87 1730 2607.33 1729.33C2608.8 1728.67 2619.33 1724.53 2630.67 1720C2642 1715.6 2652.53 1711.33 2654 1710.8C2659.07 1708.4 2701.87 1692 2720.67 1685.2C2726.53 1683.07 2732.53 1680.8 2734 1680.13C2735.47 1679.47 2742.13 1676.93 2748.67 1674.67C2755.33 1672.4 2761.87 1670 2763.33 1669.33C2766.27 1668 2773.6 1665.33 2785.33 1661.33C2789.33 1659.87 2797.73 1656.93 2804 1654.53C2810.27 1652.27 2818 1649.47 2821.33 1648.53C2824.67 1647.47 2844.13 1641.07 2864.67 1634.27C2906.53 1620.13 2910.93 1618.8 2956 1605.6C2958.53 1604.93 2962.27 1604.27 2964.4 1604.13C2967.6 1604 2968 1604.4 2968 1608.27ZM700.4 2062.8C728.4 2067.2 751.467 2089.07 764.133 2123.33C769.6 2138.13 770.533 2141.33 772 2151.87C772.8 2157.2 773.733 2162.13 774 2162.67C775.333 2164.93 774.8 2198.67 773.333 2208.8C771.6 2220 767.333 2238.13 765.067 2243.87C760.933 2253.87 758.533 2259.6 757.333 2261.33C756.533 2262.4 755.2 2264.8 754.4 2266.67C750.933 2274 737.333 2289.47 728.533 2296C720 2302.4 706.4 2309.33 702.133 2309.33C698.133 2309.33 697.067 2307.47 686 2279.33C676.533 2255.2 675.867 2253.2 671.2 2236.67C659.067 2193.33 656.667 2136 665.333 2099.33C672 2070.8 673.333 2066.8 676.133 2064.4C680.133 2061.2 687.067 2060.8 700.4 2062.8ZM2040.93 2734.67C2048.27 2743.87 2061.6 2760.67 2070.53 2772C2079.47 2783.33 2089.6 2796.13 2093.07 2800.4C2096.53 2804.67 2099.87 2809.2 2100.53 2810.4C2101.2 2811.6 2106.67 2818.67 2112.67 2826C2126.8 2843.47 2129.87 2848 2128.53 2849.2C2127.2 2850.4 2116.67 2853.33 2099.33 2857.47C2092.8 2858.93 2082.53 2861.33 2076.67 2862.8C2070.8 2864.13 2061.47 2866.13 2056 2867.33C2043.87 2869.73 2043.33 2869.33 2042 2856.27C2041.47 2851.33 2040.53 2845.07 2039.87 2842.27C2039.07 2839.6 2037.33 2828.8 2036 2818.27C2034.53 2807.87 2032.8 2795.07 2032.13 2790C2030.93 2781.33 2029.47 2769.07 2026.67 2743.33C2026 2737.47 2025.07 2729.2 2024.53 2724.8C2023.73 2718.13 2023.87 2717.07 2025.73 2717.47C2026.8 2717.73 2033.73 2725.47 2040.93 2734.67ZM2001.33 2814.8C2002.13 2819.47 2003.6 2828.67 2004.8 2835.33C2006 2841.87 2006.67 2849.73 2006.4 2852.67L2006 2858H1993.33C1972.8 2858 1950.67 2852.53 1950.67 2847.47C1950.67 2845.47 1968.4 2828.13 1976.67 2822C1979.6 2819.87 1985.47 2814.8 1989.73 2810.93C1994.67 2806.27 1998 2804.13 1998.8 2804.93C1999.47 2805.6 2000.67 2810 2001.33 2814.8ZM2041.87 3064.13C2045.2 3092.93 2046.8 3117.73 2045.33 3119.2C2041.73 3122.8 2014.8 3123.6 1997.07 3120.53C1983.47 3118.27 1970.27 3112.67 1969.6 3108.8C1968.8 3104.93 1993.07 3082.4 2024.8 3057.2C2028.13 3054.53 2032.53 3050.8 2034.4 3048.8C2036.4 3046.93 2038.4 3045.87 2038.93 3046.4C2039.6 3047.07 2040.93 3054.93 2041.87 3064.13ZM2106.53 3145.47C2109.2 3147.33 2114.67 3151.2 2118.67 3154C2133.07 3164.13 2138.67 3168.53 2138.67 3170C2138.67 3172.13 2134 3176.13 2123.33 3183.2C2118.27 3186.53 2112.53 3190.4 2110.67 3191.6C2091.07 3204.8 2085.07 3208.27 2084 3207.2C2082.67 3205.73 2081.73 3133.2 2083.2 3130.93C2083.73 3130 2087.07 3131.6 2092.93 3135.73C2097.73 3139.2 2103.87 3143.6 2106.53 3145.47ZM2272 3301.87C2272 3310.13 2270.8 3317.33 2269.33 3317.33C2267.47 3317.33 2266.4 3298.67 2268.13 3296.53C2270.93 3293.07 2272 3294.53 2272 3301.87ZM226.667 3312C226.667 3312.67 226.133 3313.33 225.333 3313.33C224.667 3313.33 224 3312.67 224 3312C224 3311.2 224.667 3310.67 225.333 3310.67C226.133 3310.67 226.667 3311.2 226.667 3312Z" fill="url(#paint0_linear_0_1)"/>
<path id="Vector_2" d="M937.333 1677.47C937.333 1678.13 938 1678.4 938.667 1678C939.467 1677.6 940 1676.93 940 1676.53C940 1676.27 939.467 1676 938.667 1676C938 1676 937.333 1676.67 937.333 1677.47Z" fill="url(#paint1_linear_0_1)"/>
<path id="Vector_3" d="M949.333 1703.33C938.533 1705.07 927.2 1708.53 916.8 1713.33C894.267 1723.47 868.4 1750.27 857.867 1774.13C856 1778.4 853.867 1783.2 853.333 1784.67C845.733 1801.73 842.8 1836.93 847.067 1858.4C849.333 1869.87 857.333 1891.33 862.8 1900.67C872.8 1917.87 891.6 1936.8 908.133 1946.27C922.4 1954.4 948.4 1961.33 964.667 1961.33C975.2 1961.33 992.267 1957.73 1004.27 1953.2C1015.6 1948.8 1017.07 1948 1028.67 1940.53C1035.07 1936.4 1054.93 1916.53 1060.8 1908.53C1068.4 1897.87 1080 1872.4 1080 1866C1080 1864.53 1080.93 1860.93 1082 1858C1084.67 1850.27 1084.67 1812.93 1081.87 1802.13C1074.4 1772.53 1066.4 1757.33 1048.27 1738.4C1028.53 1717.73 1004.53 1705.6 979.333 1703.47C973.467 1702.93 966.533 1702.4 964 1702.13C961.467 1701.87 954.8 1702.4 949.333 1703.33ZM1002 1758.53C1009.47 1761.87 1015.2 1767.07 1019.47 1774.4C1022.8 1780 1023.2 1782 1023.2 1793.33C1023.33 1807.47 1021.87 1811.73 1013.87 1821.07C1002.27 1834.8 980.267 1836.27 966.267 1824.53C952.267 1812.8 948.4 1793.07 956.667 1776.93C966.533 1757.87 984.133 1750.8 1002 1758.53Z" fill="url(#paint2_linear_0_1)"/>
<path id="Vector_4" d="M1746 1848.67C1745.33 1848.8 1739.6 1850.4 1733.33 1852.13C1701.73 1860.67 1672.4 1884.27 1654.13 1915.73C1651.47 1920.4 1649.33 1924.93 1649.33 1925.87C1649.33 1926.67 1648.8 1928 1648.13 1928.67C1646.27 1930.8 1640.27 1949.47 1638 1960C1635.6 1971.87 1635.33 2002.13 1637.47 2013.87C1640 2027.33 1648.13 2050.13 1653.73 2059.33C1673.87 2092.8 1693.73 2109.47 1728 2121.47C1740.4 2125.87 1741.07 2125.87 1763.33 2126C1785.47 2126 1796.27 2124.53 1806 2120C1832.4 2107.87 1836 2105.47 1851.47 2090.13C1869.07 2072.53 1882.8 2051.07 1888 2032.67C1888.8 2029.73 1890.4 2024 1891.6 2020C1894.4 2010.4 1894.8 1967.2 1892.27 1955.33C1888.13 1937.2 1880.67 1919.87 1869.73 1903.33C1858.93 1887.33 1825.07 1858.67 1816.67 1858.67C1815.73 1858.67 1814.53 1858.13 1814.13 1857.47C1813.33 1856.27 1808.27 1854.53 1792.13 1850C1787.07 1848.67 1779.2 1848 1766.13 1848.13C1755.73 1848.13 1746.8 1848.4 1746 1848.67ZM1760.4 1893.6C1767.87 1897.33 1775.87 1906 1779.47 1914.13C1782 1920 1782.67 1923.6 1782.67 1933.2C1782.67 1943.33 1782.13 1945.87 1778.8 1952.8C1774.27 1961.87 1765.6 1970.8 1758.13 1973.87C1752.4 1976.27 1732.67 1976.8 1731.33 1974.67C1730.93 1973.87 1729.6 1973.33 1728.53 1973.33C1723.07 1973.33 1710.13 1958.67 1706.27 1948C1702.27 1937.07 1704.13 1920.53 1710.53 1910.13C1716.8 1900.27 1728.67 1891.6 1738 1890.27C1744.67 1889.33 1755.07 1890.8 1760.4 1893.6Z" fill="url(#paint3_linear_0_1)"/>
<path id="Vector_5" d="M1258 2011.6C1251.87 2012.93 1241.33 2017.73 1239.07 2020.27C1235.6 2024.13 1236 2035.07 1240 2042.4C1246.93 2055.47 1264.27 2068 1275.33 2068C1288.8 2068 1311.73 2056.67 1318.4 2046.67C1326.67 2034.4 1314.27 2019.73 1290.27 2013.33C1281.33 2010.93 1264.93 2010 1258 2011.6Z" fill="url(#paint4_linear_0_1)"/>
<path id="Vector_6" d="M1004 2099.6C1001.47 2102.8 1001.2 2104.27 1002 2110.53C1004 2126 1014.93 2145.73 1030.27 2160.8L1041.2 2171.6L1041.33 2191.47C1041.73 2238.13 1047.87 2312.67 1054.13 2348C1059.07 2376.13 1063.07 2396.53 1065.47 2406C1066.27 2408.93 1067.33 2413.73 1068 2416.67C1070.8 2429.6 1074.53 2443.87 1077.33 2452.4C1096.8 2513.2 1110.4 2544.8 1130.93 2576C1154.27 2611.47 1183.47 2636.27 1212.8 2645.47C1228.93 2650.67 1254 2649.07 1270.27 2641.87C1272.53 2640.8 1274.93 2640 1275.6 2640C1278.27 2640 1303.47 2624.67 1315.33 2616C1331.87 2603.6 1364.8 2570.53 1381.47 2549.33C1394.8 2532.53 1396.4 2530.4 1407.6 2514.67C1415.07 2504.27 1433.47 2474.93 1440.8 2462C1443.6 2456.8 1447.33 2450.27 1448.93 2447.33C1450.67 2444.4 1455.07 2436 1458.8 2428.67C1462.53 2421.33 1466.13 2414.67 1466.67 2414C1467.2 2413.2 1469.6 2408.13 1472 2402.67C1476.27 2392.8 1477.73 2389.6 1484.67 2374C1496.67 2347.2 1519.6 2280.8 1523.33 2261.87C1524.4 2256.53 1526.8 2254.53 1536 2251.47C1556.8 2244.4 1579.87 2224.67 1580 2213.87C1580 2205.47 1570.4 2201.33 1562.93 2206.4C1557.07 2210.4 1541.47 2216.8 1529.33 2220.13C1519.6 2222.93 1515.07 2223.33 1496.67 2223.33C1478.93 2223.33 1474.53 2222.93 1470.8 2220.93C1468.27 2219.73 1465.47 2218.67 1464.4 2218.67C1462.27 2218.67 1439.87 2207.6 1429.33 2201.33C1425.33 2198.93 1420.8 2196.53 1419.33 2195.87C1417.87 2195.2 1414.93 2193.6 1412.67 2192.13C1410.53 2190.8 1399.07 2184.13 1387.33 2177.33C1375.6 2170.53 1357.33 2159.87 1346.67 2153.6C1310.8 2132.4 1296 2124.27 1286.13 2120.13C1276.8 2116.27 1275.2 2116 1259.2 2116C1248.8 2116 1238.8 2116.8 1233.47 2118C1228.67 2119.07 1220.53 2120.93 1215.33 2122.13C1210.27 2123.2 1203.6 2124.93 1200.67 2125.87C1197.73 2126.8 1191.73 2128.67 1187.33 2130C1182.93 2131.2 1177.2 2133.07 1174.67 2134C1172.13 2134.93 1167.33 2136.4 1164 2137.33C1160.67 2138.27 1155.6 2139.73 1152.67 2140.67C1149.73 2141.6 1142.27 2143.33 1136 2144.67C1129.73 2145.87 1120.8 2147.73 1116 2148.8C1102.53 2151.73 1080.4 2151.33 1070.4 2147.87C1056 2142.93 1039.47 2128.4 1026.4 2109.33C1018.27 2097.33 1016.8 2096 1011.2 2096C1008 2096 1006 2097.07 1004 2099.6ZM1272 2150.93C1276.4 2152.27 1286 2157.2 1295.33 2162.93C1297.6 2164.27 1300.27 2165.73 1301.33 2166.13C1302.4 2166.67 1312.4 2172.4 1323.33 2178.93C1334.4 2185.47 1344.27 2191.33 1345.33 2191.87C1350.8 2194.67 1377.07 2209.73 1386 2215.2C1389.73 2217.47 1393.87 2220 1395.33 2220.93C1396.8 2221.87 1401.6 2224.4 1406 2226.8C1410.4 2229.07 1414.67 2231.47 1415.47 2232.13C1418.53 2234.53 1448.93 2249.33 1454.67 2251.07C1461.2 2253.2 1478.67 2257.07 1484 2257.6C1488.27 2258.13 1488.93 2262 1486.13 2270.4C1484.93 2273.87 1482 2282.93 1479.47 2290.67C1470.4 2318.27 1460.13 2345.6 1450.67 2367.33C1450 2368.8 1442.8 2383.73 1434.53 2400.67C1418 2434.67 1401.6 2463.07 1381.33 2492.67C1380.27 2494.27 1377.73 2498 1375.87 2500.93C1356.4 2530 1320 2570.13 1297.2 2587.47C1273.87 2605.07 1250.4 2616 1235.47 2616C1223.6 2616 1203.33 2606.13 1188.8 2593.33C1184 2589.2 1162.67 2564.53 1162.67 2563.2C1162.67 2562.67 1161.2 2560.27 1159.33 2557.87C1157.47 2555.47 1156 2553.2 1156 2552.8C1156 2552.4 1153.6 2548.13 1150.8 2543.47C1144.8 2533.87 1138.4 2520.53 1130.53 2501.47C1127.6 2494.4 1124.27 2486.67 1123.33 2484.27C1122.27 2481.87 1121.33 2479.33 1121.33 2478.53C1121.33 2477.73 1120.53 2475.2 1119.47 2472.93C1114 2460.4 1099.6 2406.4 1092.8 2372.67C1090 2358.8 1085.6 2329.87 1083.33 2310.93C1081.6 2296.53 1081.6 2295.33 1084.27 2286.93C1085.73 2282 1087.73 2276.13 1088.67 2274C1089.73 2271.73 1092.4 2265.47 1094.67 2260C1099.6 2248.13 1116.13 2219.47 1127.33 2203.2C1128.8 2201.07 1134 2194.13 1138.93 2187.73C1146.13 2178.67 1148.93 2176 1152.4 2175.33C1158.13 2174.13 1168.53 2171.07 1185.33 2165.73C1218 2155.2 1250.27 2148 1261.33 2149.07C1264.67 2149.33 1269.47 2150.13 1272 2150.93ZM1096.4 2186.53C1096.93 2187.07 1094.93 2190.93 1092 2195.2C1089.07 2199.33 1086.67 2203.07 1086.67 2203.47C1086.67 2205.47 1078.27 2216 1077.2 2215.33C1075.73 2214.4 1075.6 2186.27 1077.07 2184.8C1078.13 2183.6 1094.8 2185.07 1096.4 2186.53Z" fill="url(#paint5_linear_0_1)"/>
<path id="Vector_7" d="M1828.67 2246.13C1827.2 2246.4 1822.4 2247.33 1818 2248.27C1779.73 2255.33 1742.13 2280.27 1717.07 2315.33C1710.4 2324.67 1701.2 2343.73 1696.4 2358C1685.73 2389.6 1686.53 2431.47 1698.27 2460.67C1714 2500 1733.33 2522.93 1770 2546.4C1771.47 2547.2 1773.87 2548.53 1775.33 2549.2C1776.8 2549.87 1781.33 2551.87 1785.33 2553.73C1812.93 2566.13 1844.8 2570.13 1875.33 2564.93C1897.47 2561.2 1905.87 2558.4 1923.73 2549.07C1940.67 2540.4 1953.73 2530.13 1968.13 2514.67C1982 2499.6 1984 2496.93 1992.53 2481.2C2005.07 2458 2010.67 2434.67 2010.67 2406C2010.53 2368 2000.4 2337.33 1978.27 2308C1968.53 2295.33 1962.13 2288.93 1948.67 2278.8C1926.27 2262 1912.13 2255.33 1884.67 2248.53C1876.93 2246.67 1834.4 2244.8 1828.67 2246.13ZM1883.33 2282.4C1896.4 2286 1911.6 2293.2 1923.73 2301.87C1942.27 2315.07 1953.73 2328.93 1964.53 2351.33C1975.07 2373.07 1978.93 2392.8 1977.07 2415.47C1974.53 2446.8 1962 2473.87 1939.6 2496.27C1923.33 2512.67 1910 2520.67 1886.93 2528.13C1875.6 2531.73 1871.6 2532.4 1854.67 2532.93C1828.67 2533.87 1816.67 2531.47 1794.67 2520.93C1777.2 2512.53 1756.27 2495.47 1748.67 2483.33C1747.2 2481.07 1744.93 2477.87 1743.33 2476C1738.8 2470.13 1730.93 2453.2 1727.2 2440.67C1724 2429.87 1723.6 2426.53 1723.6 2407.33C1723.6 2381.6 1726 2370.4 1736 2350C1753.6 2314.27 1788.93 2287.47 1828 2280C1838.27 2278 1872.8 2279.47 1883.33 2282.4Z" fill="url(#paint6_linear_0_1)"/>
<path id="Vector_8" d="M1546.67 2786.13C1532.8 2795.07 1489.87 2839.33 1468.67 2866.53C1450.53 2889.87 1445.47 2896.8 1429.73 2920.67C1423.47 2930.13 1415.87 2941.6 1412.93 2946C1406.67 2955.47 1390.13 2982.53 1388.93 2985.33C1388.4 2986.4 1385.6 2991.2 1382.67 2995.87C1379.73 3000.4 1377.33 3004.53 1377.33 3004.8C1377.33 3005.07 1375.47 3008.4 1373.2 3012.27C1357.07 3039.47 1330.13 3092.67 1309.33 3138.67C1305.47 3147.07 1300.67 3157.73 1298.53 3162.4C1296.4 3167.07 1294.67 3171.2 1294.67 3171.6C1294.67 3172 1293.73 3174.4 1292.53 3177.07C1289.07 3184.8 1283.33 3199.07 1277.73 3214C1276.53 3216.93 1274.8 3221.2 1273.87 3223.6C1272.8 3225.87 1272 3228.27 1272 3228.93C1272 3229.47 1270.27 3234.13 1268.27 3239.33C1266.13 3244.4 1262.8 3253.47 1260.8 3259.33C1258.93 3265.2 1256.67 3271.73 1255.87 3274C1251.07 3288 1249.07 3294.13 1245.33 3306.67C1242.93 3314.4 1240.53 3322.13 1239.87 3324C1239.2 3325.87 1236.67 3335.47 1234.13 3345.33C1231.6 3355.2 1228.13 3369.07 1226.27 3376C1222.53 3390.93 1217.33 3414.53 1213.2 3435.33C1211.73 3442.93 1211.07 3443.87 1196.4 3459.33C1187.87 3468.13 1178.53 3478.93 1175.6 3483.33C1170.67 3490.4 1170 3492.4 1169.6 3500.4L1169.07 3509.47L1174.93 3515.2C1180.27 3520.27 1182 3521.07 1194.13 3523.73C1201.33 3525.33 1208.53 3526.8 1210 3526.93C1212.53 3527.33 1212.67 3528.27 1212.13 3547.6C1211.47 3575.47 1214.67 3583.87 1227.6 3588.8C1233.2 3590.93 1234 3590.93 1240.8 3588.8C1244.8 3587.47 1252.67 3584.4 1258.27 3581.73C1265.07 3578.53 1268.67 3577.47 1269.6 3578.4C1270.4 3579.2 1271.47 3585.2 1272.13 3591.87C1274 3611.47 1279.33 3620.4 1290.8 3623.2C1296.8 3624.53 1307.2 3620.4 1320.8 3611.2C1330.67 3604.4 1334.27 3602.67 1335.87 3603.6C1337.07 3604.27 1340.67 3609.33 1344 3614.93C1355.47 3634 1364.8 3642.53 1374.53 3642.67C1379.2 3642.67 1389.87 3636.8 1402.8 3627.2C1409.2 3622.53 1414.93 3618.67 1415.87 3618.67C1416.67 3618.67 1419.47 3621.87 1422 3625.87C1434.53 3645.47 1448.4 3655.33 1458.8 3651.87C1467.2 3648.93 1471.6 3643.6 1482.93 3621.47C1492.27 3603.47 1499.87 3590.67 1504.4 3585.33C1506.53 3582.8 1546.8 3542 1593.87 3494.67C1640.93 3447.33 1688 3399.33 1698.67 3388C1709.2 3376.67 1723.87 3360.93 1731.2 3353.2C1738.67 3345.47 1750.13 3333.07 1756.67 3325.47C1763.33 3318 1773.33 3306.67 1778.93 3300.27C1784.67 3293.87 1792.8 3284.4 1796.93 3279.33C1801.2 3274.13 1808.27 3265.73 1812.67 3260.4C1817.07 3255.2 1822.93 3248.27 1825.6 3244.93C1830.53 3239.07 1857.6 3202.93 1862.67 3195.33C1867.07 3188.93 1877.73 3172.13 1884.67 3160.8C1891.47 3149.6 1912.4 3108.13 1914 3102.67C1914.53 3100.8 1915.47 3098.67 1916 3098C1917.6 3095.87 1919.07 3084.53 1918 3081.47C1917.6 3079.87 1915.33 3077.73 1913.07 3076.53C1907.6 3073.73 1902.67 3075.87 1897.87 3083.07C1895.87 3086.13 1893.2 3090.27 1891.73 3092.27C1890.4 3094.27 1889.33 3096.27 1889.33 3096.53C1889.33 3097.33 1866.27 3132 1851.73 3153.47C1836.8 3175.2 1836.67 3175.33 1809.07 3211.47C1800 3223.33 1780.13 3247.33 1764 3266C1758.93 3271.87 1751.6 3280.4 1747.73 3284.93C1736 3298.53 1705.73 3331.73 1689.33 3348.67C1680.93 3357.47 1667.73 3371.33 1660.13 3379.33C1652.53 3387.47 1608.13 3432.4 1561.47 3479.33C1470.67 3570.8 1471.73 3569.47 1457.47 3597.73C1454.93 3602.67 1452.13 3606.67 1451.07 3606.67C1450.13 3606.67 1448.4 3605.07 1447.07 3603.07C1438.93 3589.73 1433.07 3581.47 1429.6 3578.13C1421.87 3570.93 1412.8 3574.53 1390.4 3594.13C1387.73 3596.53 1384 3599.47 1382 3600.8C1378.67 3602.93 1378.4 3602.93 1375.33 3600C1373.47 3598.27 1372 3596.27 1372 3595.73C1372 3595.07 1370.27 3591.87 1368 3588.67C1365.87 3585.47 1364 3582.4 1364 3582C1364 3581.47 1361.47 3578 1358.4 3574.27C1351.33 3566 1344 3562.4 1336.93 3563.87C1331.07 3565.2 1320 3570.8 1312.8 3576.13C1309.73 3578.4 1306.93 3579.47 1306.27 3578.8C1305.6 3578.13 1304.53 3573.47 1304 3568.27C1300.93 3544.67 1290.4 3534.53 1273.07 3538.67C1269.2 3539.6 1262.27 3542.13 1257.73 3544.27C1253.07 3546.4 1248.67 3547.73 1247.87 3547.33C1246.93 3546.67 1246.8 3540.67 1247.47 3527.87L1248.4 3509.33L1243.07 3504.27C1237.73 3499.2 1229.73 3495.6 1221.33 3494.13C1211.47 3492.4 1211.73 3491.87 1226.8 3476.4C1234.53 3468.53 1241.6 3460.8 1242.27 3459.33C1243.6 3456.67 1244.4 3452.93 1248.67 3430.67C1253.07 3408.27 1262.67 3367.6 1267.47 3351.33C1268.53 3347.6 1270.27 3341.6 1271.33 3338C1274.27 3327.73 1279.87 3309.2 1281.47 3304.67C1282.13 3302.4 1284 3296.8 1285.6 3292C1288.93 3281.6 1307.6 3229.73 1309.33 3226C1310 3224.53 1313.07 3217.07 1316.13 3209.33C1319.07 3201.6 1323.2 3191.47 1325.33 3186.67C1327.33 3181.87 1331.07 3173.2 1333.47 3167.33C1335.87 3161.47 1338.53 3155.73 1339.6 3154.53C1340.53 3153.47 1341.33 3151.73 1341.33 3150.93C1341.33 3147.07 1384 3060.67 1398.13 3035.87C1401.73 3029.6 1405.6 3022.8 1406.67 3020.93C1407.73 3018.93 1413.73 3008.93 1420 2998.67C1426.27 2988.4 1432.27 2978.4 1433.33 2976.4C1440.53 2963.33 1488.53 2893.47 1498.27 2881.87C1501.47 2878.13 1504 2874.53 1504 2874C1504 2873.47 1505.6 2871.07 1507.73 2868.53C1509.73 2866.13 1514 2860.4 1517.33 2856C1530.8 2837.6 1546.4 2818.67 1556.8 2807.73C1569.33 2794.67 1570.8 2790.67 1564.67 2784.67C1560.13 2780.13 1555.2 2780.53 1546.67 2786.13Z" fill="url(#paint7_linear_0_1)"/>
</g>
</g>
<defs>
<linearGradient id="paint0_linear_0_1" x1="360" y1="3806.5" x2="2430" y2="1159" gradientUnits="userSpaceOnUse">
<stop/>
<stop offset="1" stop-color="#B97715" stop-opacity="0.87"/>
</linearGradient>
<linearGradient id="paint1_linear_0_1" x1="937.496" y1="1678.12" x2="938.511" y2="1676.07" gradientUnits="userSpaceOnUse">
<stop/>
<stop offset="1" stop-color="#B97715" stop-opacity="0.87"/>
</linearGradient>
<linearGradient id="paint2_linear_0_1" x1="859.72" y1="1953.28" x2="998.304" y2="1741.34" gradientUnits="userSpaceOnUse">
<stop/>
<stop offset="1" stop-color="#B97715" stop-opacity="0.87"/>
</linearGradient>
<linearGradient id="paint3_linear_0_1" x1="1651.81" y1="2117.37" x2="1799.9" y2="1889.21" gradientUnits="userSpaceOnUse">
<stop/>
<stop offset="1" stop-color="#B97715" stop-opacity="0.87"/>
</linearGradient>
<linearGradient id="paint4_linear_0_1" x1="1241.87" y1="2066.22" x2="1265.25" y2="2009.04" gradientUnits="userSpaceOnUse">
<stop/>
<stop offset="1" stop-color="#B97715" stop-opacity="0.87"/>
</linearGradient>
<linearGradient id="paint5_linear_0_1" x1="1037" y1="2631.36" x2="1315.75" y2="2147.01" gradientUnits="userSpaceOnUse">
<stop/>
<stop offset="1" stop-color="#B97715" stop-opacity="0.87"/>
</linearGradient>
<linearGradient id="paint6_linear_0_1" x1="1708.6" y1="2557.17" x2="1874.35" y2="2281.8" gradientUnits="userSpaceOnUse">
<stop/>
<stop offset="1" stop-color="#B97715" stop-opacity="0.87"/>
</linearGradient>
<linearGradient id="paint7_linear_0_1" x1="1214.93" y1="3625.51" x2="1692.51" y2="2943.55" gradientUnits="userSpaceOnUse">
<stop/>
<stop offset="1" stop-color="#B97715" stop-opacity="0.87"/>
</linearGradient>
</defs>
</svg>
